<svg width="27" height="26" fill="none" xmlns="http://www.w3.org/2000/svg"><path d="M26.954 13.01l-.023.01-3.873-9.64h1.767a.574.574 0 000-1.148h-10.8V.574a.574.574 0 00-1.148 0v1.653H2.083a.574.574 0 000 1.147h1.842L.045 13.01a.574.574 0 00-.045.213 4.772 4.772 0 009.543 0 .574.574 0 00-.046-.213L5.624 3.37h7.253v17.743C10.14 21.32 8 22.983 8 24.997c0 .317.257.574.573.574h9.756a.574.574 0 00.574-.574c0-2.014-2.14-3.678-4.878-3.885V3.37h7.328l-3.85 9.64a.575.575 0 00-.046.213 4.772 4.772 0 009.543 0 .573.573 0 00-.046-.213zM4.77 16.853a3.627 3.627 0 01-3.575-3.047H8.32a3.627 3.627 0 01-3.552 3.047zm3.345-4.195h-6.68L4.78 4.333l3.334 8.326zm9.538 11.764H9.245c.425-1.233 2.175-2.186 4.2-2.186 2.026 0 3.782.953 4.207 2.186zm4.55-20.085l3.335 8.321h-6.68l3.346-8.32zm0 12.516v.006a3.627 3.627 0 01-3.552-3.053h7.128a3.627 3.627 0 01-3.575 3.047z" fill="#000"/></svg>