<svg width="28" height="25" fill="none" xmlns="http://www.w3.org/2000/svg"><path d="M19.543 0c-2.318 0-4.487.98-5.932 2.624C12.167.981 9.998 0 7.681 0 3.444 0 0 3.22 0 7.18c0 3.1 1.977 6.686 5.877 10.658 3.001 3.056 6.266 5.423 7.195 6.075l.54.379.538-.379c.93-.652 4.194-3.019 7.196-6.075 3.9-3.972 5.877-7.558 5.877-10.658 0-3.96-3.445-7.18-7.68-7.18zm.48 16.703c-2.468 2.514-5.124 4.546-6.412 5.483-1.287-.937-3.943-2.969-6.412-5.483-3.535-3.601-5.404-6.894-5.404-9.523 0-3.034 2.64-5.502 5.885-5.502 2.136 0 4.108 1.088 5.146 2.84l.785 1.323.785-1.323c1.039-1.752 3.01-2.84 5.147-2.84 3.245 0 5.885 2.468 5.885 5.502 0 2.629-1.869 5.922-5.405 9.523z" fill="#E8AA31"/></svg>